<?xml version="1.0" encoding="UTF-8" standalone="no"?>
<svg
   xmlns:dc="http://purl.org/dc/elements/1.1/"
   xmlns:cc="http://creativecommons.org/ns#"
   xmlns:rdf="http://www.w3.org/1999/02/22-rdf-syntax-ns#"
   xmlns:svg="http://www.w3.org/2000/svg"
   xmlns="http://www.w3.org/2000/svg"
   xml:space="preserve" enable-background="new 262 -68.285 26 37.955" viewBox="262 -68.285 24.999001 36.494997"
   height="36.494999" width="24.999001" y="0px" x="0px" version="1.1">
   <g transform="translate(-0.501,-0.73000366)">
     <path style="fill:#002d6a" d="m 281.715,-41.24 c -0.309,0 -0.448,-0.004 -0.579,-0.004 -0.139,0 -0.299,0.026 -0.374,0.243 l -0.277,0.495 -1.107,1.96 -1.108,-1.96 -0.276,-0.495 c -0.075,-0.217 -0.235,-0.243 -0.374,-0.243 -0.132,0 -0.271,0.004 -0.58,0.004 -0.303,0 -0.185,0.235 -0.185,0.235 0,0 1.125,1.993 2.029,3.604 0,0 -0.014,1.914 -0.014,2.047 0,0.134 0.071,0.218 0.215,0.218 l 0.528,0 c 0.095,0 0.264,-0.008 0.264,-0.211 l -0.005,-2.054 c 0.905,-1.611 2.029,-3.604 2.029,-3.604 0,0 0.117,-0.235 -0.186,-0.235 z m -11.358,0.005 -2.22,0 c -0.193,0 -0.22,0.159 -0.22,0.257 0,0.1 0.001,5.619 0.001,5.619 0,0.233 0.212,0.222 0.236,0.222 l 0.568,0 c 0.093,0 0.196,-0.075 0.196,-0.182 l -0.001,-2.014 1.441,0 c 1.078,0 1.952,-0.874 1.952,-1.952 -10e-4,-1.076 -0.875,-1.95 -1.953,-1.95 z m -0.016,2.93 -1.424,0 0,-1.93 1.424,-10e-4 c 0.533,0 0.966,0.432 0.966,0.966 0,0.533 -0.433,0.965 -0.966,0.965 z m 5.237,-2.674 c -0.076,-0.154 -0.13,-0.255 -0.404,-0.255 l -0.72,0 c -0.274,0 -0.328,0.1 -0.404,0.255 -0.069,0.152 -2.083,5.608 -2.083,5.608 0,0 -0.119,0.235 0.185,0.235 0.309,0 0.377,0.004 0.508,0.004 0.139,0 0.299,-0.026 0.374,-0.243 0.066,-0.191 0.367,-1.026 0.367,-1.026 l 2.827,0 c 0,0 0.302,0.836 0.367,1.026 0.076,0.217 0.235,0.243 0.374,0.243 0.131,0 0.198,-0.004 0.508,-0.004 0.303,0 0.185,-0.235 0.185,-0.235 0,0 -2.015,-5.456 -2.084,-5.608 z m -1.766,3.579 1.001,-2.837 1.062,2.837 -2.063,0 z m 12.503,-30.155 -22.631,0 c -0.652,0 -1.183,0.531 -1.183,1.185 l 0,34.124 c 0,0.656 0.531,1.186 1.183,1.186 l 22.631,0 c 0.654,0 1.185,-0.531 1.185,-1.186 l 0,-34.124 c 0,-0.654 -0.531,-1.185 -1.185,-1.185 z m -14.738,9.028 4.038,0 c 1.062,0 1.917,0.908 1.917,1.963 0,1.059 -0.855,1.917 -1.917,1.917 l -0.698,0.037 c -0.375,0.015 -0.57,0.235 -0.582,0.579 l 0,2.355 c 0.027,0.374 0.255,0.57 0.614,0.57 l 1.735,0 c 1.152,0 2.084,0.934 2.084,2.081 0,1.087 -0.84,1.975 -1.9,2.065 l -4.699,0.004 c -0.349,-0.009 -0.577,-0.211 -0.591,-0.594 l 0,-10.977 z m -7.381,-6.774 0,-0.001 c 0,-0.297 0.229,-0.535 0.516,-0.558 0,0 1.281,0 3.205,0 l 0,3.715 -3.721,0 c 0,-1.947 0,-3.156 0,-3.156 z m 21.612,31.946 c 0,0.305 -0.154,0.594 -0.599,0.602 l -20.449,0 c -0.012,0 -0.026,0 -0.041,-0.003 -0.292,-0.017 -0.525,-0.257 -0.525,-0.553 0,0 0.002,-15.715 0.002,-25.117 l 6.231,0 -2.509,0.915 0,13.759 c 0,0.386 0.214,0.587 0.54,0.617 l 8.461,0 c 2.892,-0.093 5.205,-2.459 5.205,-5.372 0,-1.91 -0.996,-3.585 -2.492,-4.539 0.935,-0.83 1.643,-2.186 1.643,-3.522 0,-3.56 -2.525,-5.58 -6.134,-5.58 l -3.508,0 0,-3.713 c 5.95,0 13.576,0.003 13.576,0.003 0.462,0 0.599,0.302 0.599,0.6 l 0,31.903 z" />
   </g></svg>