<svg width="61px" height="16px" viewBox="0 0 61 19" version="1.1" xmlns="http://www.w3.org/2000/svg" xmlns:xlink="http://www.w3.org/1999/xlink">
    <defs>
        <path d="M16.5067265,6.8163914 C16.4885424,5.45098632 17.7844012,4.68898456 18.760602,4.23597633 C19.7636005,3.77111879 20.1004855,3.47306308 20.0966572,3.05742575 C20.0890008,2.42120896 19.2965554,2.14047147 18.5548342,2.12953365 C17.2608895,2.11039245 16.5086407,2.4622258 15.9104784,2.72837953 L15.4443904,0.65110438 C16.0444667,0.387685109 17.155613,0.157990797 18.3079128,0.147964458 C21.0125633,0.147964458 22.7821666,1.41948654 22.7917372,3.39102939 C22.8022648,5.89305673 19.1577817,6.0316025 19.1826653,7.14999505 C19.1912788,7.4890676 19.531035,7.85092729 20.2756274,7.94298732 C20.6440954,7.98947307 21.6614497,8.025021 22.8147066,7.51914662 L23.2673958,9.52897185 C22.6472212,9.7440824 21.8499905,9.95007809 20.8575196,9.95007809 C18.311741,9.95007809 16.5210824,8.66123778 16.5067265,6.8163914 M27.6172319,9.77689587 C27.1233891,9.77689587 26.7070681,9.50253878 26.5213986,9.08143254 L22.6577488,0.295625087 L25.3604852,0.295625087 L25.8983527,1.71116186 L29.2011655,1.71116186 L29.513167,0.295625087 L31.8952884,0.295625087 L29.8165549,9.77689587 L27.6172319,9.77689587 M27.9952704,7.21562199 L28.775274,3.65536015 L26.6391169,3.65536015 L27.9952704,7.21562199 M13.2297544,9.77689587 L11.0993396,0.295625087 L13.6747871,0.295625087 L15.8042448,9.77689587 L13.2297544,9.77689587 M9.41969995,9.77689587 L6.73897591,3.32357948 L5.65462734,8.81072138 C5.52733841,9.42323955 5.0248821,9.77689587 4.46691634,9.77689587 L0.0845402678,9.77689587 L0.0232884511,9.50162729 C0.922924508,9.31568428 1.9450642,9.01580559 2.56428178,8.69496274 C2.9432774,8.49899339 3.05142514,8.32763414 3.17584289,7.86186512 L5.22969287,0.295625087 L7.95157047,0.295625087 L12.1243505,9.77689587 L9.41969995,9.77689587" id="path-1"></path>
        <linearGradient x1="16.1481739%" y1="34.4008407%" x2="85.8318643%" y2="66.3485849%" id="linearGradient-3">
            <stop stop-color="#222357" offset="0%"></stop>
            <stop stop-color="#254AA5" offset="100%"></stop>
        </linearGradient>
    </defs>
    <g id="Finals" stroke="none" stroke-width="1" fill="none" fill-rule="evenodd">
        <g id="page/xero" transform="translate(-816.000000, -2826.000000)">
            <g id="body">
                <g id="Group-26" transform="translate(0.000000, 2050.000000)">
                    <g id="Group-15" transform="translate(376.000000, 476.000000)">
                        <g id="Group-14" transform="translate(0.000000, 4.000000)">
                            <g id="Group-13" transform="translate(418.000000, 94.000000)">
                                <g id="Group-12" transform="translate(0.000000, 98.000000)">
                                    <g id="Group-9-Copy" transform="translate(22.000000, 104.000000)">
                                        <g id="credit_card_icon/mastercard">
                                            <g id="mastercard-logo">
                                                <g id="g15" transform="translate(1.250000, 15.765957)" fill="#000000" fill-rule="nonzero">
                                                    <path d="M3.355455,2.91611869 L3.355455,1.67521712 C3.355455,1.19953819 3.06000613,0.889312793 2.55352236,0.889312793 C2.30028047,0.889312793 2.02593509,0.972039564 1.83600368,1.24090157 C1.68827924,1.01340295 1.47724434,0.889312793 1.16069198,0.889312793 C0.949657074,0.889312793 0.738622169,0.951357871 0.569794245,1.17885649 L0.569794245,0.930676178 L0.126620943,0.930676178 L0.126620943,2.91611869 L0.569794245,2.91611869 L0.569794245,1.81998897 C0.569794245,1.46840019 0.759725659,1.30294665 1.05517453,1.30294665 C1.35062339,1.30294665 1.49834783,1.48908189 1.49834783,1.81998897 L1.49834783,2.91611869 L1.94152113,2.91611869 L1.94152113,1.81998897 C1.94152113,1.46840019 2.15255603,1.30294665 2.42690141,1.30294665 C2.72235028,1.30294665 2.87007471,1.48908189 2.87007471,1.81998897 L2.87007471,2.91611869 L3.355455,2.91611869 Z M9.91864055,0.930676178 L9.20112187,0.930676178 L9.20112187,0.330907086 L8.75794857,0.330907086 L8.75794857,0.930676178 L8.35698225,0.930676178 L8.35698225,1.32362834 L8.75794857,1.32362834 L8.75794857,2.23362283 C8.75794857,2.68862007 8.94787999,2.95748208 9.45436376,2.95748208 C9.64429518,2.95748208 9.85533008,2.895437 10.0030545,2.81271023 L9.87643357,2.44043976 C9.74981263,2.52316653 9.60208819,2.54384822 9.49657074,2.54384822 C9.28553584,2.54384822 9.20112187,2.41975806 9.20112187,2.21294114 L9.20112187,1.32362834 L9.91864055,1.32362834 L9.91864055,0.930676178 Z M13.6750619,0.889312793 C13.42182,0.889312793 13.2529921,1.01340295 13.1474746,1.17885649 L13.1474746,0.930676178 L12.7043013,0.930676178 L12.7043013,2.91611869 L13.1474746,2.91611869 L13.1474746,1.79930728 C13.1474746,1.46840019 13.295199,1.28226496 13.5695444,1.28226496 C13.6539584,1.28226496 13.7594758,1.30294665 13.8438898,1.32362834 L13.9705107,0.909994486 C13.8860968,0.889312793 13.7594758,0.889312793 13.6750619,0.889312793 Z M7.99822291,1.09612972 C7.78718801,0.951357871 7.49173914,0.889312793 7.17518678,0.889312793 C6.66870301,0.889312793 6.33104716,1.13749311 6.33104716,1.53044527 C6.33104716,1.86135236 6.58428905,2.04748759 7.02746235,2.10953267 L7.23849725,2.13021436 C7.47063565,2.17157775 7.59725659,2.23362283 7.59725659,2.33703129 C7.59725659,2.48180314 7.42842867,2.58521161 7.1329798,2.58521161 C6.83753093,2.58521161 6.60539254,2.48180314 6.4576681,2.37839468 L6.2466332,2.70930176 C6.4787716,2.87475531 6.79532395,2.95748208 7.11187631,2.95748208 C7.70277405,2.95748208 8.04042989,2.68862007 8.04042989,2.3163496 C8.04042989,1.96476082 7.76608452,1.77862559 7.34401471,1.71658051 L7.1329798,1.69589881 C6.94304839,1.67521712 6.79532395,1.63385374 6.79532395,1.50976358 C6.79532395,1.36499173 6.94304839,1.28226496 7.17518678,1.28226496 C7.42842867,1.28226496 7.68167056,1.38567342 7.8082915,1.4477185 L7.99822291,1.09612972 Z M19.7739706,0.889312793 C19.5207287,0.889312793 19.3519008,1.01340295 19.2463834,1.17885649 L19.2463834,0.930676178 L18.8032101,0.930676178 L18.8032101,2.91611869 L19.2463834,2.91611869 L19.2463834,1.79930728 C19.2463834,1.46840019 19.3941078,1.28226496 19.6684532,1.28226496 C19.7528671,1.28226496 19.8583846,1.30294665 19.9427986,1.32362834 L20.0694195,0.909994486 C19.9850055,0.889312793 19.8583846,0.889312793 19.7739706,0.889312793 Z M14.1182352,1.92339744 C14.1182352,2.52316653 14.540305,2.95748208 15.1945132,2.95748208 C15.4899621,2.95748208 15.700997,2.895437 15.9120319,2.72998346 L15.700997,2.37839468 C15.532169,2.50248484 15.3633411,2.56452991 15.1734097,2.56452991 C14.8146504,2.56452991 14.5614085,2.3163496 14.5614085,1.92339744 C14.5614085,1.55112696 14.8146504,1.30294665 15.1734097,1.28226496 C15.3633411,1.28226496 15.532169,1.34431004 15.700997,1.46840019 L15.9120319,1.11681141 C15.700997,0.951357871 15.4899621,0.889312793 15.1945132,0.889312793 C14.540305,0.889312793 14.1182352,1.32362834 14.1182352,1.92339744 Z M18.2123123,1.92339744 L18.2123123,0.930676178 L17.769139,0.930676178 L17.769139,1.17885649 C17.6214146,0.992721257 17.4103797,0.889312793 17.1360343,0.889312793 C16.5662401,0.889312793 16.1230668,1.32362834 16.1230668,1.92339744 C16.1230668,2.52316653 16.5662401,2.95748208 17.1360343,2.95748208 C17.4314832,2.95748208 17.6425181,2.85407361 17.769139,2.66793838 L17.769139,2.91611869 L18.2123123,2.91611869 L18.2123123,1.92339744 Z M16.5873436,1.92339744 C16.5873436,1.57180866 16.819482,1.28226496 17.1993448,1.28226496 C17.5581041,1.28226496 17.811346,1.55112696 17.811346,1.92339744 C17.811346,2.27498621 17.5581041,2.56452991 17.1993448,2.56452991 C16.819482,2.54384822 16.5873436,2.27498621 16.5873436,1.92339744 Z M11.2903674,0.889312793 C10.6994697,0.889312793 10.2773999,1.30294665 10.2773999,1.92339744 C10.2773999,2.54384822 10.6994697,2.95748208 11.3114709,2.95748208 C11.6069198,2.95748208 11.9023687,2.87475531 12.1345071,2.68862007 L11.9234722,2.37839468 C11.7546442,2.50248484 11.5436093,2.58521161 11.3325744,2.58521161 C11.058229,2.58521161 10.7838837,2.46112145 10.7205732,2.10953267 L12.218921,2.10953267 C12.218921,2.04748759 12.218921,2.00612421 12.218921,1.94407913 C12.2400245,1.30294665 11.8601617,0.889312793 11.2903674,0.889312793 Z M11.2903674,1.26158326 C11.5647128,1.26158326 11.7546442,1.42703681 11.7968512,1.7372622 L10.7416767,1.7372622 C10.7838837,1.46840019 10.9738151,1.26158326 11.2903674,1.26158326 Z M22.285286,1.92339744 L22.285286,0.14477185 L21.8421127,0.14477185 L21.8421127,1.17885649 C21.6943883,0.992721257 21.4833534,0.889312793 21.209008,0.889312793 C20.6392137,0.889312793 20.1960404,1.32362834 20.1960404,1.92339744 C20.1960404,2.52316653 20.6392137,2.95748208 21.209008,2.95748208 C21.5044569,2.95748208 21.7154918,2.85407361 21.8421127,2.66793838 L21.8421127,2.91611869 L22.285286,2.91611869 L22.285286,1.92339744 Z M20.6603172,1.92339744 C20.6603172,1.57180866 20.8924556,1.28226496 21.2723185,1.28226496 C21.6310778,1.28226496 21.8843197,1.55112696 21.8843197,1.92339744 C21.8843197,2.27498621 21.6310778,2.56452991 21.2723185,2.56452991 C20.8924556,2.54384822 20.6603172,2.27498621 20.6603172,1.92339744 Z M5.84566688,1.92339744 L5.84566688,0.930676178 L5.40249358,0.930676178 L5.40249358,1.17885649 C5.25476914,0.992721257 5.04373424,0.889312793 4.76938886,0.889312793 C4.19959462,0.889312793 3.75642132,1.32362834 3.75642132,1.92339744 C3.75642132,2.52316653 4.19959462,2.95748208 4.76938886,2.95748208 C5.06483773,2.95748208 5.27587263,2.85407361 5.40249358,2.66793838 L5.40249358,2.91611869 L5.84566688,2.91611869 L5.84566688,1.92339744 Z M4.19959462,1.92339744 C4.19959462,1.57180866 4.43173301,1.28226496 4.81159584,1.28226496 C5.17035518,1.28226496 5.42359707,1.55112696 5.42359707,1.92339744 C5.42359707,2.27498621 5.17035518,2.56452991 4.81159584,2.56452991 C4.43173301,2.54384822 4.19959462,2.27498621 4.19959462,1.92339744 Z" id="XMLID_1775_"></path>
                                                </g>
                                                <g id="XMLID_328_" fill-rule="nonzero">
                                                    <rect id="rect19" fill="#FF5F00" x="9.1546522" y="1.74141145" width="6.67526568" height="11.4609035"></rect>
                                                    <path d="M9.57847647,7.47186138 C9.57847647,5.14323249 10.7228077,3.07783992 12.4816873,1.74140943 C11.1890168,0.76945998 9.55728515,0.182240521 7.7772143,0.182240521 C3.5601417,0.182240521 0.148339237,3.44232096 0.148339237,7.47186138 C0.148339237,11.5014018 3.5601417,14.7614822 7.7772143,14.7614822 C9.55728515,14.7614822 11.1890168,14.1742628 12.4816873,13.2023133 C10.7228077,11.8861318 9.57847647,9.80049027 9.57847647,7.47186138 Z" id="XMLID_330_" fill="#EB001B"></path>
                                                    <path d="M24.8362266,7.47186138 C24.8362266,11.5014018 21.4244241,14.7614822 17.2073515,14.7614822 C15.4272807,14.7614822 13.7955491,14.1742628 12.5028786,13.2023133 C14.2829494,11.8658828 15.4060894,9.80049027 15.4060894,7.47186138 C15.4060894,5.14323249 14.2617581,3.07783992 12.5028786,1.74140943 C13.7955491,0.76945998 15.4272807,0.182240521 17.2073515,0.182240521 C21.4244241,0.182240521 24.8362266,3.46256991 24.8362266,7.47186138 Z" id="path22" fill="#F79E1B"></path>
                                                </g>
                                            </g>
                                        </g>
                                        <g id="credit_card_icon/visa" transform="translate(29.000000, 5.000000)">
                                            <g id="visa_logo">
                                                <g id="g10267" transform="translate(16.000000, 5.000000) scale(-1, 1) rotate(-180.000000) translate(-16.000000, -5.000000) ">
                                                    <g id="g10269-Clipped">
                                                        <mask id="mask-2" fill="white">
                                                            <use xlink:href="#path-1"></use>
                                                        </mask>
                                                        <g id="path10273"></g>
                                                        <g id="g10269" mask="url(#mask-2)">
                                                            <g transform="translate(-3.509219, -10.026339)" id="g10275">
                                                                <g transform="translate(0.194921, 0.272230)">
                                                                    <polyline id="path10283" fill="url(#linearGradient-3)" fill-rule="nonzero" points="0 18.5335358 31.4033598 29.547925 38.5474909 11.0724204 7.14445018 0.058031235"></polyline>
                                                                </g>
                                                            </g>
                                                        </g>
                                                    </g>
                                                </g>
                                            </g>
                                        </g>
                                    </g>
                                </g>
                            </g>
                        </g>
                    </g>
                </g>
            </g>
        </g>
    </g>
</svg>